<?xml version="1.0" standalone="no"?><!DOCTYPE svg PUBLIC "-//W3C//DTD SVG 1.1//EN" "http://www.w3.org/Graphics/SVG/1.1/DTD/svg11.dtd"><svg t="1629103759169" class="icon" viewBox="0 0 1024 1024" version="1.1" xmlns="http://www.w3.org/2000/svg" p-id="10063" xmlns:xlink="http://www.w3.org/1999/xlink" width="100" height="100"><defs><style type="text/css"></style></defs><path d="M512 384m-64 0a64 64 0 1 0 128 0 64 64 0 1 0-128 0Z" p-id="10064"></path><path d="M746.666667 85.333333H277.333333a106.666667 106.666667 0 0 0-106.666666 106.666667v682.666667a64 64 0 0 0 101.12 52.053333l240.213333-170.666667 240.213333 170.666667A64 64 0 0 0 789.333333 938.666667a61.866667 61.866667 0 0 0 29.226667-7.253334A64 64 0 0 0 853.333333 874.666667V192a106.666667 106.666667 0 0 0-106.666666-106.666667zM512 512a128 128 0 1 1 128-128 128 128 0 0 1-128 128z" p-id="10065"></path></svg>